<svg xmlns="http://www.w3.org/2000/svg" viewBox="0 0 64 64">
  <rect width="64" height="64" rx="10" fill="#0f0d0c"/>
  <path fill="#ece4d3" stroke="#ece4d3" stroke-width="1" stroke-linejoin="round" d="M16 28c0-9 7-15 16-15s16 6 16 15v9c0 3-2 5-5 5h-1v6c0 2-1 3-3 3h-3v-4h-2v4h-6v-4h-2v4h-3c-2 0-3-1-3-3v-6h-1c-3 0-5-2-5-5z"/>
  <ellipse cx="25" cy="29" rx="3.5" ry="4.5" fill="#0f0d0c"/>
  <ellipse cx="39" cy="29" rx="3.5" ry="4.5" fill="#0f0d0c"/>
  <path d="M32 35l-2.5 5h5z" fill="#0f0d0c"/>
</svg>
